<svg viewBox="0 0 32 32" xmlns="http://www.w3.org/2000/svg">
  <circle fill="currentColor" cx="16" cy="16" r="16" />
  <path fill="white" fill-rule="evenodd" clip-rule="evenodd" d="M16.09 5c2.88 0 5.7 1.13 7.73 3.21A10.75 10.75 0 0 1 27 15.88a10.98 10.98 0 0 1-16.19 9.63L5 27l1.56-5.65A10.9 10.9 0 0 1 16.09 5Zm-4.98 18.55.36.18a8.96 8.96 0 0 0 9.36-.12 8.94 8.94 0 0 0 2.93-12.43 9.1 9.1 0 0 0-12.53-2.91A8.95 8.95 0 0 0 8.3 20.7l.24.35-.9 3.4 3.47-.9Zm9.6-5.47.66.3c.11.06.18.12.18.12v.41c-.07.3-.12.6-.24.84-.06.11-.18.23-.3.35l-.18.15-.18.15-.12.12c-.07.07-.14.1-.22.13l-.2.1c-.24.13-.6.24-.9.24h-.6c-.1-.03-.2-.04-.3-.05-.1-.02-.21-.03-.3-.06a10.74 10.74 0 0 1-4.32-2.26c-.08-.12-.18-.21-.3-.31l-.18-.17-.24-.24a9.9 9.9 0 0 1-2.22-3.03l-.06-.18a3.02 3.02 0 0 1 .51-3.39l.15-.18.18-.11c.06-.05.12-.1.18-.12l.06-.06.18-.03a.76.76 0 0 1 .18-.03h.66c.18.06.3.12.42.3.18.35.9 1.96.96 2.25.06.18 0 .42-.12.6-.06.06-.1.13-.15.2-.04.08-.09.16-.15.22-.18.17-.42.47-.42.47-.06.06-.06.18-.06.3.03.04.04.08.05.11l.07.13.06.11c.3.54.72 1.02 1.14 1.43l.21.18.21.18c.48.47 1.08.83 1.74 1.13l.3.12c.06.06.18.12.24.12h.06c.12 0 .24-.06.3-.18l.9-1.01c.12-.06.24-.12.42-.12l.09.03.09.03c.6.3 1.56.71 1.56.71Z" />
</svg>
