<svg viewBox="0 0 24 24" xmlns="http://www.w3.org/2000/svg">
  <g fill="currentColor">
    <path d="M14.4 14.55v2.68a3.94 3.94 0 0 0 3.28 3.9l.12.02.12-.03a3.94 3.94 0 0 0 3.27-3.89v-2.68l-3.4-1.12-3.38 1.12Zm5.38 2.68c0 1.2-.83 2.23-1.98 2.48a2.54 2.54 0 0 1-1.99-2.48v-1.67l1.99-.65 1.98.65v1.67Z" />
    <path d="M21.66 11.74V2.81h-6.61V0H6.6v2.81H0V18.5h11.71a6.75 6.75 0 0 0 5.48 5.4l.6.1.61-.1a6.75 6.75 0 0 0 5.6-6.67v-4.71l-2.34-.78Zm-3.86-1.28-6.2 2.06v4.57H4.7a3.7 3.7 0 0 0-1.02-2.27A3.7 3.7 0 0 0 1.4 13.8V7.5a3.7 3.7 0 0 0 2.28-1A3.7 3.7 0 0 0 4.7 4.22h12.26c.07.64.3 1.54 1.02 2.27a3.7 3.7 0 0 0 2.27 1.02v3.77l-2.45-.82Zm2.45-4.37a2.25 2.25 0 0 1-1.27-.6 2.25 2.25 0 0 1-.6-1.27h1.87v1.87ZM8.02 1.41h5.62v1.4H8.02v-1.4ZM3.28 4.2c-.06.4-.21.9-.6 1.28-.39.4-.89.54-1.27.6V4.22h1.87Zm-1.87 11c.38.07.88.22 1.27.6.39.4.54.9.6 1.28H1.41v-1.87Zm21.18 2.02a5.35 5.35 0 0 1-4.43 5.28l-.36.06-.37-.06A5.34 5.34 0 0 1 13 17.23v-3.7l4.8-1.59 4.8 1.6v3.7Z" />
    <path d="M7.31 9.84h7.03V5.62H7.31v4.22Zm1.4-2.8h4.23v1.4H8.72v-1.4ZM4.87 12.8l3.64-1.5.54 1.3-3.64 1.5-.54-1.3Z" />
  </g>
</svg>
