<svg viewBox="0 0 24 24" xmlns="http://www.w3.org/2000/svg">
  <path fill="currentColor" d="M24 13.7a3.75 3.75 0 0 0-2.71-3.6l-2.44-.7-1.93-3.84a3.44 3.44 0 0 0-3.09-1.91H6.61c-1.43 0-2.73.9-3.23 2.24l-1.36 3.6-.75.38A2.28 2.28 0 0 0 0 11.92v5.84h3.37a3.3 3.3 0 0 0 6.44 0h4.38a3.3 3.3 0 0 0 6.44 0H24V13.7Zm-8.34-7.51 1.55 3.1h-6.39V5.06h3.01c.78 0 1.48.43 1.83 1.13Zm-10.96.2c.3-.8 1.06-1.33 1.91-1.33h2.8v4.23h-5.8L4.7 6.4Zm1.89 12.55a1.88 1.88 0 1 1 0-3.77 1.88 1.88 0 0 1 0 3.77Zm10.82 0a1.88 1.88 0 1 1 0-3.77 1.88 1.88 0 0 1 0 3.77Zm3.22-2.59a3.3 3.3 0 0 0-6.44 0H9.81a3.3 3.3 0 0 0-6.44 0H1.41v-4.43c0-.33.19-.64.5-.79l.84-.42h15.37v-.04l2.78.8c.7.2 1.25.7 1.52 1.35h-1.24v1.42h1.4v2.11h-1.95Z" />
</svg>
