<svg viewBox="0 0 24 24" xmlns="http://www.w3.org/2000/svg">
  <path fill="currentColor" d="M22.6 9.24V7.5a2.76 2.76 0 0 0-2.77-2.76h-5.77c-.82 0-1.55.36-2.06.93a2.75 2.75 0 0 0-2.06-.93H4.17A2.76 2.76 0 0 0 1.4 7.5v1.75a2.11 2.11 0 0 0-1.41 2v6.85h1.4v1.18H2.8V18.1h18.4v1.18h1.4V18.1H24v-6.86c0-.92-.59-1.7-1.4-1.99Zm-9.9.65v-2.4c0-.74.61-1.35 1.36-1.35h5.77c.75 0 1.36.6 1.36 1.35v1.75a2.11 2.11 0 0 0-1.41 2v1.7H12.7V9.89Zm-9.89-2.4c0-.74.61-1.35 1.36-1.35h5.77c.75 0 1.36.6 1.36 1.35v5.45H4.22v-1.7c0-.93-.59-1.7-1.4-2V7.5Zm19.78 9.2H1.41v-5.46a.7.7 0 0 1 1.4 0v3.11H21.2v-3.1a.7.7 0 0 1 1.4 0v5.45Z" />
</svg>
