<svg viewBox="0 0 24 24" xmlns="http://www.w3.org/2000/svg">
  <path fill="currentColor" d="M14.17 9.33h1.43v1.4h-1.43v-1.4Zm2.81 0h1.43v1.4h-1.43v-1.4Zm-8.54 0h1.43v1.4H8.44v-1.4Zm2.85 0h1.43v1.4H11.3v-1.4Z" />
  <path fill="currentColor" d="M24 20.11v-1.4h-1.26L24 15.64v-3.66h-1.4v-5.3h-2.86v-2.8h-4.22v2.8h-1.41v-2.8H9.89v2.8H6.64l-2.89 5.3H0v1.67c0 1.9.76 3.72 2.07 5.06H0v1.4h24ZM16.93 5.3h1.4v1.39h-1.4v-1.4Zm-5.63 0h1.4v1.39h-1.4v-1.4ZM7.48 8.1h13.7V12H5.37l2.12-3.9Zm-6.07 5.3h21.18v1.4H1.52a5.76 5.76 0 0 1-.11-1.14v-.26Zm2.32 4.91A5.82 5.82 0 0 1 2 16.2h20.25l-1.03 2.5H4.27l-.54-.4Z" />
</svg>
