<svg viewBox="0 0 24 24" xmlns="http://www.w3.org/2000/svg">
  <path fill="currentColor" d="M24 2.86a2.8 2.8 0 0 0-.83-2.03A2.8 2.8 0 0 0 21.14 0a2.8 2.8 0 0 0-2 .87l-4.2 4.38-11-3.64L.69 4.86l9.2 5.65-3.79 3.94-2.96-.49L0 17.1l5.11 1.79L6.91 24l3.13-3.13-.49-2.97 3.94-3.78 5.65 9.19 3.25-3.25-3.64-11 4.38-4.2a2.8 2.8 0 0 0 .87-2Zm-1.84.99-5.02 4.82 3.64 11-1.37 1.38-5.64-9.15-5.73 5.5.5 2.98-1.05 1.04-1.27-3.64-3.64-1.27 1.04-1.04 2.98.49 5.5-5.73-9.15-5.64 1.37-1.37 11.01 3.64 4.82-5.02a1.4 1.4 0 0 1 1-.43h.02a1.41 1.41 0 0 1 1.42 1.43 1.4 1.4 0 0 1-.43 1.01Z" />
</svg>
