<svg viewBox="0 0 24 24" xmlns="http://www.w3.org/2000/svg">
  <path fill="currentColor" d="M6.84 14.06a2.11 2.11 0 1 0 0 4.23 2.11 2.11 0 0 0 0-4.23Zm0 2.81a.7.7 0 1 1 0-1.4.7.7 0 0 1 0 1.4Zm10.32-2.81a2.11 2.11 0 1 0 0 4.23 2.11 2.11 0 0 0 0-4.23Zm0 2.81a.7.7 0 1 1 0-1.4.7.7 0 0 1 0 1.4ZM4.73 12.19h14.54V4.22H4.73v7.97Zm7.97-6.56h5.16v5.15H12.7V5.63Zm-6.56 0h5.16v5.15H6.14V5.63Z" />
  <path fill="currentColor" d="M18.83.85A24.78 24.78 0 0 0 12 0C9.43 0 7 .3 5.17.85c-2.68.8-3.25 1.9-3.25 2.67v15.46c0 1.17.95 2.11 2.11 2.11H7.1L4.38 24h1.93l2.71-2.9h5.96l2.71 2.9h1.93l-2.72-2.9h3.07c1.16 0 2.1-.95 2.1-2.12V3.52c0-.77-.56-1.86-3.24-2.67Zm1.84 18.13a.7.7 0 0 1-.7.7H4.03a.7.7 0 0 1-.7-.7V3.52c0-.25.6-.83 2.24-1.32 1.71-.51 4-.8 6.43-.8 2.44 0 4.72.29 6.43.8 1.63.5 2.24 1.07 2.24 1.32v15.46Z" />
</svg>
