<svg viewBox="0 0 32 32" xmlns="http://www.w3.org/2000/svg">
  <g fill="currentColor" fill-rule="evenodd" clip-rule="evenodd">
    <path d="M16 29.177c7.277 0 13.177-5.9 13.177-13.177 0-7.277-5.9-13.176-13.177-13.176C8.723 2.824 2.824 8.723 2.824 16S8.723 29.177 16 29.177ZM16 32c8.837 0 16-7.163 16-16S24.837 0 16 0 0 7.163 0 16s7.163 16 16 16Z" />
    <path d="M14.709 6.477a1.988 1.988 0 0 1 2.582 0l7.107 6.209c.569.497.755 1.27.47 1.948-.285.678-.984 1.123-1.762 1.123h-2.688v7.469c0 .98-.847 1.774-1.893 1.774h-5.05c-1.046 0-1.893-.794-1.893-1.774v-7.468H8.894c-.778 0-1.477-.446-1.762-1.124-.285-.678-.099-1.45.47-1.948l7.107-6.21Zm-1.234 7.506v9.243h5.05v-9.243h4.581L16 7.774l-7.106 6.21h4.581Z" />
  </g>
</svg>
