<svg viewBox="0 0 24 24" xmlns="http://www.w3.org/2000/svg">
  <path fill="currentColor" d="M15.88 5.52a1.74 1.74 0 0 1-1.05-1.32h.63V2a2 2 0 0 0-1.99-2h-2.86a2 2 0 0 0-1.99 2v2.2h.55c-.1.58-.48 1.09-1.05 1.32a2.28 2.28 0 0 0-1.4 2.1v14.15a2.23 2.23 0 0 0 3.75 1.62 2.22 2.22 0 0 0 3.06 0 2.22 2.22 0 0 0 3.75-1.62V7.63c0-.93-.55-1.75-1.4-2.1ZM10.03 2c0-.32.26-.58.58-.58h2.86c.32 0 .59.26.59.58v.8h-4.03V2Zm3.38 2.2c.04.46.18.9.4 1.28h-3.62c.22-.39.36-.82.4-1.27h2.82Zm-5.28 7.04h7.74v5.55H8.13v-5.55Zm7.74 10.54a.82.82 0 0 1-1.64 0h-1.4a.82.82 0 0 1-1.65 0H9.77a.82.82 0 0 1-1.64 0V18.2h7.74v3.58ZM8.13 9.82v-2.2c0-.3.16-.59.43-.75h6.88c.27.16.43.44.43.76v2.19H8.13Z" />
  <path fill="currentColor" d="M10.45 13.33h3.18v1.4h-3.18v-1.4Z" />
</svg>
