<svg viewBox="0 0 24 24" xmlns="http://www.w3.org/2000/svg">
  <path fill="currentColor" d="M9.68 6.23V0H5.46v6.23a4.63 4.63 0 0 0-2.53 4.13V24h9.28V10.36a4.61 4.61 0 0 0-2.53-4.13ZM8.28 1.4v1.68H6.86V1.41h1.4Zm2.52 16.36H7.15V12.7h3.65v5.07ZM5.74 11.3v7.87h5.06v3.42H4.34V10.36c0-1.33.83-2.55 2.08-3.02l.45-.17V4.5h1.4v2.67l.46.17a3.25 3.25 0 0 1 2.07 3.02v.94H5.74Zm15.33 2.9V8.16h-6.84v6.04a3.43 3.43 0 0 0 2.72 3.35v5.04h-2.72V24h6.84v-1.4h-2.72v-5.05a3.43 3.43 0 0 0 2.72-3.35Zm-1.4-4.64v1.4h-4.04v-1.4h4.03Zm-4.04 4.64v-1.82h4.03v1.82a2.02 2.02 0 0 1-4.03 0Z" />
</svg>
