<svg viewBox="0 0 24 24" xmlns="http://www.w3.org/2000/svg">
  <path fill="currentColor" d="M23.41 12.33a2.1 2.1 0 0 0-.81-2.45v-5.1c0-1.16-.95-2.11-2.11-2.11H3.5a2.1 2.1 0 0 0-2.1 2.1v5.1a2.1 2.1 0 0 0-.82 2.46H0v9h1.4v-2.15h21.2v2.15H24v-9h-.59ZM3.51 4.08H20.5c.39 0 .7.31.7.7v4.74h-1.4v-.7c0-1.17-.95-2.11-2.11-2.11H13.4c-.54 0-1.04.2-1.41.53a2.1 2.1 0 0 0-1.4-.53H6.31a2.1 2.1 0 0 0-2.1 2.1v.7H2.8V4.79c0-.39.31-.7.7-.7Zm7.79 5.44H5.62v-.7c0-.4.31-.7.7-.7h4.27c.4 0 .7.3.7.7v.7Zm1.4-.7c0-.4.32-.7.7-.7h4.28c.39 0 .7.3.7.7v.7H12.7v-.7Zm-10.82 2.8c0-.38.31-.7.7-.7h18.84a.7.7 0 0 1 0 1.41H2.58a.7.7 0 0 1-.7-.7Zm-.47 2.12h21.18v4.03H1.41v-4.03Z" />
</svg>
