<svg viewBox="0 0 24 24" xmlns="http://www.w3.org/2000/svg">
  <path fill="currentColor" d="M18.06 8.2h-1.32V6.48a3.28 3.28 0 0 0-4.05-5.08.2.2 0 0 1-.26-.05 3.76 3.76 0 0 0-5.77 0 .2.2 0 0 1-.26.05 3.28 3.28 0 0 0-4.05 5.08v15.41c0 1.17.95 2.12 2.11 2.12h10.16c1.17 0 2.12-.95 2.12-2.12v-.67h1.32c2.46 0 4.47-2 4.47-4.46v-4.08c0-2.46-2-4.46-4.47-4.46Zm-1.32 4.24h.85c.39 0 .7.31.7.7v3.14a.7.7 0 0 1-.7.7h-.85v-4.54ZM2.88 4.14A1.87 1.87 0 0 1 5.7 2.62c.68.4 1.54.25 2.05-.36a2.35 2.35 0 0 1 3.6 0c.51.6 1.38.76 2.05.36a1.87 1.87 0 0 1 2.4 2.8H8v4.44a.7.7 0 0 1-1.41 0V5.42H3.3c-.3-.36-.44-.8-.42-1.27Zm12.45 17.74a.7.7 0 0 1-.7.71H4.45a.7.7 0 0 1-.7-.7V6.82h1.4v3.02a2.12 2.12 0 0 0 4.24 0V6.83h5.93v15.05Zm5.79-5.13a3.06 3.06 0 0 1-3.06 3.05h-1.32v-1.4h.85c1.17 0 2.12-.96 2.12-2.12v-3.14c0-1.16-.95-2.11-2.12-2.11h-.85V9.62h1.32a3.06 3.06 0 0 1 3.06 3.05v4.08Z" />
</svg>
