<svg viewBox="0 0 24 24" xmlns="http://www.w3.org/2000/svg">
  <path fill="currentColor" d="m23.92 13.86-.02-.12c-.53-2.74-2-5.03-4.23-6.6A13.17 13.17 0 0 0 12 4.85c-2.92 0-5.57.79-7.67 2.27a10.33 10.33 0 0 0-4.23 6.6l-.02.13a4.45 4.45 0 0 0 4.35 5.28h15.14a4.44 4.44 0 0 0 4.35-5.28Zm-6.68-6.5c.55.25 1.07.55 1.55.88v1.04c0 .43-.35.78-.78.78-.48 0-.77-.43-.77-1.11v-1.6Zm-4.46-1.07v3.93a.78.78 0 0 1-1.55 0V6.3a14.49 14.49 0 0 1 1.54 0ZM5.2 8.24c.48-.33 1-.63 1.55-.88v1.92a.78.78 0 0 1-1.55 0V8.24Zm14.36 9.49H4.43a3.03 3.03 0 0 1-2.97-3.6l.03-.12A9.02 9.02 0 0 1 3.8 9.45a2.19 2.19 0 0 0 4.36-.17V6.82a12.4 12.4 0 0 1 1.65-.38v3.78a2.19 2.19 0 0 0 4.36 0V6.44c.57.1 1.12.22 1.65.38v2.13c0 .72.2 1.34.6 1.8.4.46.96.72 1.58.72 1.15 0 2.1-.9 2.18-2.02A9.02 9.02 0 0 1 22.5 14l.03.12a3.03 3.03 0 0 1-2.97 3.6Z" />
</svg>
