<svg viewBox="0 0 24 24" xmlns="http://www.w3.org/2000/svg">
  <path fill="currentColor" fill-rule="evenodd" d="M5.37 1.4a.97.97 0 0 0-.97.97v.91h15.2v-.9a.97.97 0 0 0-.97-.97H5.37ZM19.6 4.7h-6.9v7.5h6.9V4.7Zm0 8.9H4.4V19h15.2v-5.4Zm-2.3 6.8h-1.42v2.2h1.41v-2.2Zm-2.83 0v2.26c0 .74.6 1.35 1.36 1.35h1.52c.75 0 1.36-.6 1.36-1.35V20.4H21V6.1h1.58v3.99H24v-5.4h-2.99v-2.3A2.38 2.38 0 0 0 18.63 0H5.37a2.38 2.38 0 0 0-2.38 2.37V4.7H0v5.39h1.41v-4H3v14.3h2.3v2.2c0 .7.55 1.41 1.36 1.41h1.52c.75 0 1.36-.6 1.36-1.35v-2.26h4.94Zm-6.35 0H6.7v2.2h1.4v-2.2ZM4.4 4.7v7.5h6.9V4.7H4.4ZM7.41 17H6v-1.4h1.41V17Zm2.83 0H8.82v-1.4h1.42V17Zm4.94 0h-1.42v-1.4h1.42V17ZM18 17h-1.41v-1.4H18V17Z" clip-rule="evenodd" />
</svg>
