<svg viewBox="0 0 24 24" xmlns="http://www.w3.org/2000/svg">
  <path fill="currentColor" d="M19.08 5.68h-.41c-.03-.73-.08-1.47-.16-2.19l-.07-.62H.24l-.07.62A30.26 30.26 0 0 0 0 6.65c0 3.06.37 5.94 1.06 8.33.36 1.25.8 2.38 1.33 3.36a10.6 10.6 0 0 0 1.92 2.6l.2.2h9.66l.2-.2a10.6 10.6 0 0 0 1.92-2.6c.45-.84.84-1.78 1.17-2.81h1.62a4.93 4.93 0 0 0 0-9.85ZM13.6 19.73H5.09C2.74 17.27 1.4 12.53 1.4 6.65c0-.8.03-1.6.1-2.38h15.67c.06.79.1 1.59.1 2.38 0 5.88-1.34 10.62-3.68 13.08Zm4.94-9.83h.54a.7.7 0 0 1 0 1.4h-.7c.07-.45.12-.92.16-1.4Zm.54 4.22h-1.22c.1-.45.21-.92.3-1.4h.92a2.11 2.11 0 0 0 0-4.23h-.44c.02-.46.04-.93.04-1.4h.4a3.52 3.52 0 0 1 0 7.03Z" />
</svg>
