<svg viewBox="0 0 24 24" xmlns="http://www.w3.org/2000/svg">
  <path fill="currentColor" d="m22.8 13.32-2.5-2.5-.02-.02 3.7-3.03-.9-1.1-3.89 3.21A8.64 8.64 0 0 0 10.62 9V4.43H0v15.14h21.07L24 16.64v-3.32h-1.2Zm-3.5-1.51 1.51 1.51H7.46l1.51-1.51a7.25 7.25 0 0 1 5.17-2.14c1.95 0 3.78.76 5.16 2.14ZM9.2 5.84v1.3c-.27.05-.48.11-.66.17-.27.09-.47.16-.94.16a2.4 2.4 0 0 1-.93-.16c-.32-.1-.68-.22-1.37-.22-.69 0-1.05.12-1.37.22a2.4 2.4 0 0 1-.93.16c-.47 0-.67-.07-.94-.16a4.1 4.1 0 0 0-.66-.17v-1.3h7.8ZM1.4 18.16V8.58l.23.07c.32.1.68.22 1.37.22.68 0 1.05-.11 1.37-.22.26-.08.47-.15.93-.15.46 0 .67.07.93.15.32.1.68.22 1.37.22.69 0 1.05-.11 1.37-.22l.23-.07v1.2c-.44.3-.85.65-1.23 1.03l-2.51 2.51h-1.4v3.32l1.54 1.52H1.4Zm21.18-2.1-2.1 2.1H7.58l-2.1-2.1v-1.33h17.1v1.32Z"/>
</svg>
