<svg viewBox="0 0 24 24" xmlns="http://www.w3.org/2000/svg">
  <path fill="currentColor" d="M11.99 2A10 10 0 1 0 12 21.99 10 10 0 0 0 11.99 2Zm6.93 6h-2.95a15.65 15.65 0 0 0-1.38-3.56A8.03 8.03 0 0 1 18.92 8ZM12 4.04c.83 1.2 1.48 2.53 1.91 3.96h-3.82A14.09 14.09 0 0 1 12 4.04ZM4.26 14A8.24 8.24 0 0 1 4 12c0-.69.1-1.36.26-2h3.38c-.08.66-.14 1.32-.14 2 0 .68.06 1.34.14 2H4.26Zm.82 2h2.95c.32 1.25.78 2.45 1.38 3.56A7.99 7.99 0 0 1 5.08 16Zm2.95-8H5.08a7.99 7.99 0 0 1 4.33-3.56A15.65 15.65 0 0 0 8.03 8ZM12 19.96A14.09 14.09 0 0 1 10.09 16h3.82A14.09 14.09 0 0 1 12 19.96ZM14.34 14H9.66c-.09-.66-.16-1.32-.16-2 0-.68.07-1.35.16-2h4.68c.09.65.16 1.32.16 2 0 .68-.07 1.34-.16 2Zm.25 5.56c.6-1.11 1.06-2.31 1.38-3.56h2.95a8.03 8.03 0 0 1-4.33 3.56ZM16.36 14c.08-.66.14-1.32.14-2 0-.68-.06-1.34-.14-2h3.38c.16.64.26 1.31.26 2s-.1 1.36-.26 2h-3.38Z"/>
</svg>
