<svg viewBox="0 0 24 24" xmlns="http://www.w3.org/2000/svg">
  <path fill="currentColor" d="M24 12.06V0H11.94v12.06h5.4V22.6h-6.47c.29-.39.5-.84.6-1.34h3.83v-3.68a3.9 3.9 0 0 0-3.9-3.9H9.86L6.94 9.32H0v11.93h4.66c.1.5.32.95.61 1.34H0V24h24v-1.4h-5.25V12.05H24ZM6.19 10.72l1.98 2.95H1.4v-2.95h4.78ZM1.4 15.08h9.99c1 0 1.86.6 2.26 1.44H12v1.4h1.9v1.93h-2.4a3.5 3.5 0 0 0-6.85 0H1.4v-4.77Zm4.58 5.43a2.08 2.08 0 1 1 4.16 0 2.08 2.08 0 0 1-4.16 0Zm7.35-19.1h9.25v9.25h-9.25V1.4Z" />
  <path fill="currentColor" d="M18.86 2.72h-3.23v6.51h1.4V6.87h1.83a2.07 2.07 0 0 0 0-4.15Zm0 2.74h-1.83V4.13h1.83a.67.67 0 0 1 0 1.33Z" />
</svg>
