<svg viewBox="0 0 24 24" xmlns="http://www.w3.org/2000/svg">
  <path fill="currentColor" d="M4.27 8.44h9.84V2.8H4.27v5.63Zm1.4-4.22h7.03v2.81H5.67V4.22Zm5.36 10.92L9.2 11.96l-1.85 3.18a2.11 2.11 0 1 0 3.69 0ZM9.2 16.87a.7.7 0 0 1-.7-.7c0-.34.2-.51.7-1.4.49.9.7 1.06.7 1.4a.7.7 0 0 1-.7.7Z" />
  <path fill="currentColor" d="M16.92 3.07V0H1.45v11.25h1.4v8.53h-1.4V24h15.47v-4.22h-1.4v-5.72h.7c.39 0 .7.32.7.7v2.12a2.82 2.82 0 0 0 5.63 0V4.36l-5.63-1.29Zm4.22 3.96h-1.4V5.16l1.4.32v1.55Zm-1.4 1.4h1.4v1.41h-1.4v-1.4ZM2.85 1.42h12.66v8.43H2.86V1.41ZM15.51 22.6H2.86v-1.4h12.66v1.4ZM4.27 19.8v-8.54h9.84v8.53H4.27Zm15.46-1.5a1.4 1.4 0 0 1-1.4-1.41v-2.11c0-1.17-.95-2.11-2.11-2.11h-.7v-1.41h1.4V4.52l1.4.32v6.41h2.82v5.63c0 .77-.63 1.4-1.4 1.4Z" />
</svg>
