<svg viewBox="0 0 32 32" xmlns="http://www.w3.org/2000/svg">
  <path fill="currentColor" d="M3.2 7.1c.8-.2 2.1.1 2.8.7.7.8 1.3 1.8 1.7 2.6a5.6 5.6 0 0 0 4.4 2.8h1c4.8-2.2 8.7-4.6 13.3-6.8l2-1 .7.1.7.4-12 7.6L32 14l-.4.7c-.1.2-.3.3-.5.3a9 9 0 0 1-2.2.3c-5 .4-9.9.1-15 .7l-1 .5c-2.3 1.9-2.3 3.6-2.3 5.3 0 .9 0 1.7-.2 2.5-.3.8-.9 1.5-2 2-1 .4-2.3.4-3.2 0a3.3 3.3 0 0 1-1.6-2c-.5-1.7 0-3.8 1.6-4.8a11 11 0 0 1 2-1c1.1-.5 2.5-.8 3.2-1.6.4-.4.6-.9.6-1.6-.4-.6-.8-1-1.3-1-1.2-.4-2.5 0-3.7.2H3.9c-2 0-3.4-1.6-3.8-3.3-.2-.9-.1-1.8.4-2.6.9-.9 1.8-1.3 2.7-1.5Zm-2 2c-.3.6-.3 1.2-.1 1.9.3 1.3 1.5 2.5 2.9 2.5h2c.7-.5 1-1.5 1-2.2 0-.8-1-2.1-1.7-2.8-.4-.3-1-.5-1.9-.4-1 .1-1.5.5-2.1 1Zm6.6 3c0 .4 0 .8-.4 1.1h1.7A7 7 0 0 1 7.8 12Zm4.5 2.8c.2.5.7.8 1.3.7.5-.2.8-.7.6-1.3a1 1 0 0 0-1.2-.7c-.5.2-.7.8-.7 1.3Zm-6.5 5.4c-1.2.7-1.6 2.4-1.3 3.7.2.6.6 1 1.1 1.4.6.2 1.3.3 2.4 0 .6-.3 1.4-.9 1.5-1.4.2-1.2.3-2.2 0-3.3-.3-.9-1-1.3-2-1.3-.5.1-1.2.6-1.7.9Zm3.1-1.4c.5.1.7.4 1 .8 0-.5.2-1 .4-1.5l-1.4.7Z" />
</svg>
