<svg viewBox="0 0 24 24" xmlns="http://www.w3.org/2000/svg">
  <path fill="currentColor" d="m17.18 15.5 5.68 5.68-1.68 1.73-5.68-5.68v-.91l-.27-.32a7.78 7.78 0 0 1-4.82 1.82c-1 0-1.95-.18-2.86-.59s-1.68-.91-2.36-1.59-1.18-1.45-1.59-2.36a6.85 6.85 0 0 1-.59-2.86c0-1.05.18-2 .59-2.91s.91-1.68 1.59-2.36S6.64 3.97 7.51 3.6a6.85 6.85 0 0 1 2.86-.59c1.05 0 2 .18 2.91.59s1.68.91 2.36 1.59 1.18 1.45 1.59 2.36c.41.91.59 1.86.59 2.91A7.39 7.39 0 0 1 16 15.23l.27.32h.91v-.05zm-6.82 0C11.77 15.5 13 15 14 14s1.5-2.23 1.5-3.59C15.5 9 15 7.77 14 6.77s-2.18-1.5-3.64-1.5c-1.41 0-2.59.5-3.59 1.5s-1.5 2.18-1.5 3.64c0 1.41.5 2.59 1.5 3.59s2.18 1.5 3.59 1.5z" />
</svg>
