<svg viewBox="0 0 24 24" xmlns="http://www.w3.org/2000/svg">
  <path fill="currentColor" d="M13.89 11.13c.74 0 1.4-.32 1.88-.82.47.5 1.13.82 1.87.82h3.78A2.58 2.58 0 0 0 24 8.55V7.19L12.7 1.23V0h-1.4v1.23L0 7.19v1.36a2.58 2.58 0 0 0 2.58 2.58h3.78c.74 0 1.4-.32 1.87-.82.47.5 1.14.82 1.88.82h1.19v6.12H7.6l-3.13-3.13a2.1 2.1 0 0 0-2.98 0L0 15.62l5.86 5.85V24h1.4v-2.53H21.2V24h1.4v-2.53H24v-2.11a2.1 2.1 0 0 0-2.1-2.11h-9.2v-6.12h1.2Zm8.7 8.23v.7H6.44l-4.45-4.45.48-.48c.12-.12.28-.2.44-.22a.7.7 0 0 1 .57.2l3.54 3.55H21.9c.39 0 .7.31.7.7Zm0-10.81c0 .64-.52 1.17-1.17 1.17h-3.78c-.65 0-1.17-1.4-1.17-1.4h6.12v.23ZM16.15 6.9 14 3.5l6.46 3.4h-4.3Zm-1.66 0H9.5L12 2.97l2.49 3.94Zm-4.5-3.4L7.86 6.9h-4.3L10 3.5ZM6.37 9.71H2.58c-.65 0-1.17-.53-1.17-1.17V8.3h6.12v.24c0 .64-.52 1.17-1.17 1.17Zm2.58-1.17V8.3h6.12v.24c0 .64-.52 1.17-1.17 1.17h-3.78c-.65 0-1.17-.53-1.17-1.17Z" />
</svg>
