<svg viewBox="0 0 24 24" xmlns="http://www.w3.org/2000/svg">
  <path fill="currentColor" d="M21.95 12.17a5.82 5.82 0 0 0-1.89-.44H18.9c-.9-2.34-2.64-3.89-5.43-4.8l-.5-2.81H6.8l-.5 2.8c-2.78.92-4.52 2.46-5.43 4.8H0v5.94h2.32a2.93 2.93 0 0 0 5.69 0h8.01a2.93 2.93 0 0 0 5.69 0H24v-2.5c0-1.36-.73-2.42-2.05-3Zm-4.59-.44h-6.8V8.17h2.18c2.33.71 3.79 1.83 4.62 3.56Zm-9.4-6.2h3.83L12 6.76H7.75l.22-1.23Zm-.95 2.64h2.14v3.56H2.4C3.22 10 4.7 8.88 7.01 8.17Zm-1.85 10.3a1.52 1.52 0 1 1 0-3.04 1.52 1.52 0 0 1 0 3.04Zm13.7 0a1.52 1.52 0 1 1 0-3.04 1.52 1.52 0 0 1 0 3.04Zm3.73-2.22h-.88a2.93 2.93 0 0 0-5.69 0H8.01a2.93 2.93 0 0 0-5.69 0h-.91v-3.12h18.61c.08 0 .74.05 1.37.33.8.35 1.2.9 1.2 1.7v1.09Z" />
</svg>
