<svg viewBox="0 0 24 24" xmlns="http://www.w3.org/2000/svg">
  <path fill="currentColor" d="M9.88 4.94h4.24V0H8.47v7.76H7.06c0-1.21-.62-2.28-1.56-2.92A2.81 2.81 0 0 0 3.53 0a2.83 2.83 0 0 0-1.97 4.84A3.53 3.53 0 0 0 0 7.76V24h6.35v-1.41H5.14l1.92-7.73V12h2.82V4.94Zm0-3.53h2.83v2.12H9.88V1.4ZM2.12 2.82a1.41 1.41 0 1 1 2.82 0 1.41 1.41 0 0 1-2.82 0ZM3.68 22.6H1.41v-7.77h4.2L3.68 22.6Zm4.8-12H4.23V12h1.4v1.41H1.42V7.76a2.12 2.12 0 0 1 4.24 0v1.42h2.82v1.4Z" />
  <path fill="currentColor" d="M21.81 17.47a2.81 2.81 0 0 0-2.05-4.76 2.83 2.83 0 0 0-2.04 4.76c-.6.33-1.1.8-1.48 1.37a4.27 4.27 0 0 0-1.49-1.37 2.81 2.81 0 0 0-2.04-4.76 2.83 2.83 0 0 0-2.05 4.76 4.24 4.24 0 0 0-2.19 3.7V24H24v-2.82c0-1.6-.88-2.99-2.19-3.71Zm-3.46-1.94a1.41 1.41 0 1 1 2.83 0 1.41 1.41 0 0 1-2.83 0Zm-7.06 0a1.41 1.41 0 1 1 2.83 0 1.41 1.41 0 0 1-2.83 0Zm4.24 7.06H9.88v-1.41a2.83 2.83 0 0 1 5.65 0v1.4Zm7.06 0h-5.65v-1.41a2.83 2.83 0 0 1 5.65 0v1.4Z" />
</svg>
